<svg width="342" height="28" viewBox="0 0 342 28" fill="none" xmlns="http://www.w3.org/2000/svg">
<rect x="58.5" y="0.5" width="51" height="27" rx="3.5" fill="white" stroke="#E9E7EF"/>
<path d="M87.4213 20.6667H80.5791V8H87.4214L87.4213 20.6667Z" fill="#FF5F00"/>
<path d="M80.9313 14C80.9313 11.4483 82.1314 9.17531 84.0001 7.71047C82.5856 6.60003 80.836 5.99736 79.0346 6.00001C74.5971 6.00001 71 9.58167 71 14C71 18.4183 74.5971 22 79.0346 22C80.836 22.0027 82.5857 21.4 84.0002 20.2895C82.1316 18.8249 80.9313 16.5518 80.9313 14Z" fill="#EB001B"/>
<path d="M97.0001 14C97.0001 18.4183 93.4032 22 88.966 22C87.1645 22.0026 85.4148 21.4 84 20.2895C85.8692 18.8247 87.0692 16.5518 87.0692 14C87.0692 11.4482 85.8692 9.17531 84 7.71047C85.4147 6.60007 87.1644 5.99741 88.9659 6.00001C93.4031 6.00001 97 9.58167 97 14" fill="#F79E1B"/>
<rect x="0.5" y="0.5" width="51" height="27" rx="3.5" fill="white" stroke="#E9E7EF"/>
<path d="M23.6063 19.8H20.6688L22.5047 8.20715H25.4425L23.6063 19.8ZM18.1976 8.20715L15.3971 16.1808L15.0657 14.4638L15.066 14.4644L14.0775 9.25095C14.0775 9.25095 13.958 8.20715 12.6841 8.20715H8.05433L8 8.40344C8 8.40344 9.41579 8.7061 11.0727 9.72851L13.6248 19.8003H16.6855L21.359 8.20715H18.1976ZM41.3026 19.8H43.9999L41.6482 8.20684H39.2868C38.1964 8.20684 37.9308 9.07078 37.9308 9.07078L33.5497 19.8H36.6119L37.2242 18.078H40.9585L41.3026 19.8ZM38.0702 15.6992L39.6137 11.3609L40.482 15.6992H38.0702ZM33.7794 10.995L34.1986 8.50546C34.1986 8.50546 32.905 8 31.5566 8C30.0988 8 26.6371 8.65462 26.6371 11.8378C26.6371 14.8328 30.7 14.87 30.7 16.4431C30.7 18.0163 27.0557 17.7344 25.853 16.7424L25.4162 19.3454C25.4162 19.3454 26.7279 20 28.7319 20C30.7365 20 33.7607 18.9336 33.7607 16.031C33.7607 13.0168 29.6612 12.7362 29.6612 11.4257C29.6615 10.1149 32.5224 10.2833 33.7794 10.995Z" fill="#2566AF"/>
<path d="M15.066 14.4641L14.0776 9.25071C14.0776 9.25071 13.958 8.20691 12.6841 8.20691H8.05433L8 8.4032C8 8.4032 10.2252 8.87704 12.3597 10.6524C14.4005 12.3492 15.066 14.4641 15.066 14.4641Z" fill="#E6A540"/>
<rect x="174.5" y="0.5" width="51" height="27" rx="3.5" fill="white" stroke="#E9E7EF"/>
<path d="M201.178 11.0297C199.21 11.0297 197.614 12.5546 197.614 14.4366C197.614 16.4377 199.141 17.9334 201.178 17.9334C203.164 17.9334 204.731 16.4178 204.731 14.4759C204.731 12.5456 203.174 11.0297 201.178 11.0297Z" fill="url(#paint0_linear)"/>
<path d="M201.178 11.0297C199.21 11.0297 197.614 12.5546 197.614 14.4366C197.614 16.4377 199.141 17.9334 201.178 17.9334C203.164 17.9334 204.731 16.4178 204.731 14.4759C204.731 12.5456 203.174 11.0297 201.178 11.0297Z" fill="#FF8A00"/>
<path d="M180.948 11.1534H179.033V17.7834H180.938C181.95 17.7834 182.681 17.5457 183.322 17.0185C184.083 16.3921 184.535 15.4477 184.535 14.4716C184.535 12.5142 183.061 11.1534 180.948 11.1534ZM182.472 16.133C182.06 16.5017 181.53 16.661 180.687 16.661H180.337V12.2761H180.687C181.53 12.2761 182.04 12.4254 182.472 12.8127C182.923 13.2104 183.191 13.8262 183.191 14.4622C183.191 15.0995 182.923 15.7368 182.472 16.133ZM185.136 17.7834H186.438V11.1534H185.136V17.7834H185.136ZM189.626 13.6966C188.843 13.409 188.613 13.2192 188.613 12.8627C188.613 12.4448 189.023 12.1269 189.585 12.1269C189.976 12.1269 190.296 12.2859 190.638 12.6625L191.318 11.7791C190.757 11.291 190.086 11.0428 189.354 11.0428C188.173 11.0428 187.27 11.8584 187.27 12.941C187.27 13.8563 187.691 14.3231 188.914 14.7617C189.425 14.9397 189.685 15.0585 189.815 15.1396C190.076 15.3087 190.207 15.5464 190.207 15.8245C190.207 16.3622 189.775 16.7593 189.194 16.7593C188.572 16.7593 188.072 16.4515 187.771 15.8749L186.93 16.6811C187.53 17.5547 188.252 17.9437 189.245 17.9437C190.597 17.9437 191.549 17.0478 191.549 15.7657C191.549 14.7117 191.109 14.2342 189.626 13.6966ZM191.959 14.4717C191.959 16.4223 193.503 17.933 195.487 17.933C196.048 17.933 196.529 17.823 197.121 17.5457V16.0238C196.599 16.5413 196.138 16.7495 195.547 16.7495C194.234 16.7495 193.302 15.8048 193.302 14.4622C193.302 13.1903 194.264 12.186 195.487 12.186C196.107 12.186 196.579 12.4046 197.121 12.9314V11.4097C196.55 11.1224 196.078 11.0039 195.517 11.0039C193.543 11.0039 191.959 12.5451 191.959 14.4717ZM207.681 15.607L205.897 11.1534H204.474L207.311 17.9528H208.012L210.898 11.1533H209.485L207.681 15.6069V15.607ZM211.49 17.7835H215.187V16.661H212.793V14.8703H215.095V13.7477H212.793V12.276H215.187V11.1535H211.49V17.7835H211.49ZM220.346 13.1101C220.346 11.8681 219.485 11.1534 217.981 11.1534H216.047V17.7834H217.351V15.1188H217.522L219.325 17.7834H220.928L218.822 14.9907C219.806 14.7912 220.346 14.1248 220.346 13.1101ZM217.731 14.205H217.351V12.196H217.751C218.565 12.196 219.005 12.535 219.005 13.1803C219.005 13.8458 218.565 14.205 217.731 14.205Z" fill="#0B1015"/>
<rect x="116.5" y="0.5" width="51" height="27" rx="3.5" fill="white" stroke="#E9E7EF"/>
<path fill-rule="evenodd" clip-rule="evenodd" d="M130.656 14.5298L129.444 11.3524L128.239 14.5298H130.656ZM142.273 17.9682L142.266 11.7279L139.7 17.9682H138.148L135.573 11.7216V17.9682H131.974L131.294 16.1909H127.609L126.922 17.9682H125L128.169 10H130.798L133.807 17.5449V10H136.696L139.012 15.4049L141.14 10H144.087V17.9682H142.273ZM146.905 16.3389V14.7526H150.79V13.1265H146.905V11.677H151.341L153.278 14L151.255 16.3389H146.905ZM158.895 18H156.595L154.416 15.3604L152.151 18H145.141V10.0286H152.259L154.437 12.6412L156.688 10.0286H159L155.56 14.0143L158.895 18Z" fill="#528CC1"/>
<rect x="232.5" y="0.5" width="51" height="27" rx="3.5" fill="white" stroke="#E9E7EF"/>
<path d="M247 9.76471C247 7.68552 248.468 6 250.28 6H252.821V18.2353C252.821 20.3144 251.353 22 249.542 22H247V9.76471Z" fill="#005CAC"/>
<path d="M255.089 9.76471C255.089 7.68552 256.558 6 258.369 6H260.911V18.2353C260.911 20.3144 259.442 22 257.631 22H255.089V9.76471Z" fill="#D80032"/>
<path d="M263.179 9.76471C263.179 7.68552 264.647 6 266.458 6H269V18.2353C269 20.3144 267.532 22 265.72 22H263.179V9.76471Z" fill="#4BB126"/>
<rect x="290.5" y="0.5" width="51" height="27" rx="3.5" fill="white" stroke="#E9E7EF"/>
<path d="M314.156 7.71057C310.455 7.71057 307.441 10.5178 307.441 13.9891C307.441 17.4501 310.454 20.2676 314.156 20.2676C317.868 20.2676 320.87 17.4501 320.87 13.9891C320.871 13.1644 320.698 12.3477 320.361 11.5857C320.023 10.8237 319.529 10.1313 318.905 9.54818C318.282 8.96505 317.541 8.5026 316.726 8.18728C315.911 7.87197 315.038 7.70997 314.156 7.71057ZM312.632 17.6956C311.039 17.128 309.904 15.6816 309.904 13.9884C309.904 12.2952 311.039 10.8495 312.632 10.271V17.6956ZM315.679 17.7065V10.271C317.272 10.8495 318.407 12.2959 318.407 13.9884C318.407 15.681 317.272 17.1274 315.679 17.7059V17.7065ZM325.166 6H306.834C306.347 6.00017 305.881 6.18085 305.537 6.50233C305.193 6.82381 305 7.25978 305 7.71442V20.2856C305 20.7402 305.193 21.1762 305.537 21.4977C305.881 21.8191 306.347 21.9998 306.834 22H325.166C325.653 21.9998 326.119 21.8191 326.463 21.4977C326.807 21.1762 327 20.7402 327 20.2856V7.71442C327 7.25978 326.807 6.82381 326.463 6.50233C326.119 6.18085 325.653 6.00017 325.166 6ZM317.593 20.8564H314.144C310.088 20.8564 306.743 17.803 306.743 14.0636C306.743 9.97075 310.089 7.14231 314.144 7.14231H317.593C321.603 7.14231 325.259 9.97075 325.259 14.0636C325.259 17.803 321.603 20.8564 317.593 20.8564Z" fill="#0079BE"/>
<defs>
<linearGradient id="paint0_linear" x1="198.996" y1="11.6553" x2="203.766" y2="16.7323" gradientUnits="userSpaceOnUse">
<stop stop-color="#F34F26"/>
<stop offset="1" stop-color="#F69E35"/>
</linearGradient>
</defs>
</svg>
